<?xml version="1.0" encoding="iso-8859-1"?>
<!-- Generator: Adobe Illustrator 16.0.0, SVG Export Plug-In . SVG Version: 6.00 Build 0)  -->
<!DOCTYPE svg PUBLIC "-//W3C//DTD SVG 1.1//EN" "http://www.w3.org/Graphics/SVG/1.1/DTD/svg11.dtd">
<svg version="1.1" id="Capa_1" xmlns="http://www.w3.org/2000/svg" xmlns:xlink="http://www.w3.org/1999/xlink" x="0px" y="0px"
	 width="98.614px" height="98.614px" viewBox="0 0 98.614 98.614" style="enable-background:new 0 0 98.614 98.614;"
	 xml:space="preserve">
<g>
	<g>
		<path d="M30.61,54.583H10.261c-1.462,0-2.645,1.185-2.645,2.644v38.742c0,1.459,1.183,2.646,2.645,2.646H30.61
			c1.461,0,2.645-1.187,2.645-2.646V57.227C33.254,55.768,32.071,54.583,30.61,54.583z M28.908,94.354H11.875V58.842h17.033V94.354z
			"/>
		<path d="M27.458,83.298H13.327v9.337h14.131V83.298z M26.099,91.186H14.684V84.75h11.415V91.186z"/>
		<rect x="23.383" y="85.839" width="1.356" height="4.257"/>
		<rect x="21.117" y="85.839" width="1.447" height="4.257"/>
		<path d="M17.52,90.201c1.257,0,2.28-1.023,2.28-2.281c0-1.257-1.023-2.279-2.28-2.279c-1.257,0-2.279,1.022-2.279,2.279
			C15.24,89.178,16.262,90.201,17.52,90.201z M17.52,87.061c0.473,0,0.86,0.387,0.86,0.858c0,0.476-0.388,0.858-0.86,0.858
			c-0.472,0-0.859-0.385-0.859-0.858C16.66,87.447,17.046,87.061,17.52,87.061z"/>
		<path d="M27.458,71.975H13.327v9.332h14.131V71.975z M26.099,79.859H14.684v-6.522h11.415V79.859z"/>
		<rect x="23.383" y="74.424" width="1.356" height="4.256"/>
		<rect x="21.117" y="74.424" width="1.447" height="4.256"/>
		<path d="M17.52,78.827c1.257,0,2.28-1.022,2.28-2.281s-1.023-2.282-2.28-2.282c-1.257,0-2.279,1.023-2.279,2.282
			C15.24,77.803,16.262,78.827,17.52,78.827z M17.52,75.688c0.473,0,0.86,0.388,0.86,0.857c0,0.475-0.388,0.859-0.86,0.859
			c-0.472,0-0.859-0.385-0.859-0.859C16.66,76.075,17.046,75.688,17.52,75.688z"/>
		<path d="M27.458,60.561H13.327v9.332h14.131V60.561z M26.099,68.445H14.684v-6.523h11.415V68.445z"/>
		<rect x="23.383" y="63.01" width="1.356" height="4.256"/>
		<rect x="21.117" y="63.01" width="1.447" height="4.256"/>
		<path d="M17.52,67.413c1.257,0,2.28-1.021,2.28-2.282c0-1.256-1.023-2.279-2.28-2.279c-1.257,0-2.279,1.023-2.279,2.279
			C15.24,66.391,16.262,67.413,17.52,67.413z M17.52,64.273c0.473,0,0.86,0.387,0.86,0.856c0,0.474-0.388,0.858-0.86,0.858
			c-0.472,0-0.859-0.385-0.859-0.858C16.66,64.66,17.046,64.273,17.52,64.273z"/>
		<path d="M59.481,54.583H39.132c-1.462,0-2.645,1.185-2.645,2.644v38.742c0,1.459,1.183,2.646,2.645,2.646h20.349
			c1.461,0,2.646-1.187,2.646-2.646V57.227C62.126,55.768,60.942,54.583,59.481,54.583z M57.78,94.354H40.747V58.842H57.78V94.354z"
			/>
		<path d="M56.33,83.298H42.198v9.337H56.33V83.298z M54.969,91.186H43.554V84.75h11.415V91.186z"/>
		<rect x="52.254" y="85.839" width="1.355" height="4.257"/>
		<rect x="49.988" y="85.839" width="1.448" height="4.257"/>
		<path d="M46.391,90.201c1.257,0,2.28-1.023,2.28-2.281c0-1.257-1.023-2.279-2.28-2.279c-1.257,0-2.279,1.022-2.279,2.279
			C44.111,89.178,45.133,90.201,46.391,90.201z M46.391,87.061c0.473,0,0.86,0.387,0.86,0.858c0,0.476-0.388,0.858-0.86,0.858
			c-0.472,0-0.859-0.385-0.859-0.858C45.531,87.447,45.918,87.061,46.391,87.061z"/>
		<path d="M56.33,71.975H42.198v9.332H56.33V71.975z M54.969,79.859H43.554v-6.522h11.415V79.859z"/>
		<rect x="52.254" y="74.424" width="1.355" height="4.256"/>
		<rect x="49.988" y="74.424" width="1.448" height="4.256"/>
		<path d="M46.391,78.827c1.257,0,2.28-1.022,2.28-2.281s-1.023-2.282-2.28-2.282c-1.257,0-2.279,1.023-2.279,2.282
			C44.111,77.803,45.133,78.827,46.391,78.827z M46.391,75.688c0.473,0,0.86,0.388,0.86,0.857c0,0.475-0.388,0.859-0.86,0.859
			c-0.472,0-0.859-0.385-0.859-0.859C45.531,76.075,45.918,75.688,46.391,75.688z"/>
		<path d="M56.33,60.561H42.198v9.332H56.33V60.561z M54.969,68.445H43.554v-6.523h11.415V68.445z"/>
		<rect x="52.254" y="63.01" width="1.355" height="4.256"/>
		<rect x="49.988" y="63.01" width="1.448" height="4.256"/>
		<path d="M46.391,67.413c1.257,0,2.28-1.021,2.28-2.282c0-1.256-1.023-2.279-2.28-2.279c-1.257,0-2.279,1.023-2.279,2.279
			C44.111,66.391,45.133,67.413,46.391,67.413z M46.391,64.273c0.473,0,0.86,0.387,0.86,0.856c0,0.474-0.388,0.858-0.86,0.858
			c-0.472,0-0.859-0.385-0.859-0.858C45.531,64.66,45.918,64.273,46.391,64.273z"/>
		<path d="M88.352,54.583H68.004c-1.462,0-2.645,1.185-2.645,2.644v38.742c0,1.459,1.183,2.646,2.645,2.646h20.35
			c1.461,0,2.645-1.187,2.645-2.646V57.227C90.998,55.768,89.815,54.583,88.352,54.583z M86.651,94.354H69.618V58.842h17.033V94.354
			z"/>
		<path d="M85.2,83.298H71.069v9.337H85.2V83.298z M83.84,91.186H72.425V84.75H83.84V91.186z"/>
		<rect x="81.126" y="85.839" width="1.356" height="4.257"/>
		<rect x="78.86" y="85.839" width="1.446" height="4.257"/>
		<path d="M75.261,90.201c1.257,0,2.28-1.023,2.28-2.281c0-1.257-1.023-2.279-2.28-2.279s-2.278,1.022-2.278,2.279
			C72.983,89.178,74.004,90.201,75.261,90.201z M75.261,87.061c0.474,0,0.86,0.387,0.86,0.858c0,0.476-0.389,0.858-0.86,0.858
			s-0.858-0.385-0.858-0.858C74.403,87.447,74.79,87.061,75.261,87.061z"/>
		<path d="M85.2,71.975H71.069v9.332H85.2V71.975z M83.84,79.859H72.425v-6.522H83.84V79.859z"/>
		<rect x="81.126" y="74.424" width="1.356" height="4.256"/>
		<rect x="78.86" y="74.424" width="1.446" height="4.256"/>
		<path d="M75.261,78.827c1.257,0,2.28-1.022,2.28-2.281s-1.023-2.282-2.28-2.282s-2.278,1.023-2.278,2.282
			C72.983,77.803,74.004,78.827,75.261,78.827z M75.261,75.688c0.474,0,0.86,0.388,0.86,0.857c0,0.475-0.389,0.859-0.86,0.859
			s-0.858-0.385-0.858-0.859C74.403,76.075,74.79,75.688,75.261,75.688z"/>
		<path d="M85.2,60.561H71.069v9.332H85.2V60.561z M83.84,68.445H72.425v-6.523H83.84V68.445z"/>
		<rect x="81.126" y="63.01" width="1.356" height="4.256"/>
		<rect x="78.86" y="63.01" width="1.446" height="4.256"/>
		<path d="M75.261,67.413c1.257,0,2.28-1.021,2.28-2.282c0-1.256-1.023-2.279-2.28-2.279s-2.278,1.023-2.278,2.279
			C72.983,66.391,74.004,67.413,75.261,67.413z M75.261,64.273c0.474,0,0.86,0.387,0.86,0.856c0,0.474-0.389,0.858-0.86,0.858
			s-0.858-0.385-0.858-0.858C74.403,64.66,74.79,64.273,75.261,64.273z"/>
		<path d="M51.807,51.967V35.366l17.994,16.601h7.376l-22.08-20.369c0.204-0.61,0.319-1.261,0.319-1.939
			c0-3.374-2.735-6.109-6.109-6.109c-3.374,0-6.109,2.735-6.109,6.109c0,0.679,0.115,1.329,0.319,1.939l-22.08,20.369h7.376
			l17.994-16.601v16.601H51.807z"/>
		<path d="M17.221,50.414l6.674-6.157c-6.131-0.33-11.021-5.408-11.021-11.62c0-6.425,5.228-11.652,11.652-11.652
			c0.324,0,0.644,0.025,0.961,0.052c1.852,0.143,3.528-1.059,3.979-2.854c1.567-6.246,7.153-10.606,13.583-10.606
			c3.674,0,7.151,1.419,9.791,3.995c0.902,0.88,2.184,1.254,3.418,0.997c0.786-0.163,1.592-0.247,2.391-0.247
			c4.498,0,8.517,2.529,10.484,6.601c0.691,1.432,2.203,2.283,3.785,2.12c0.395-0.04,0.788-0.059,1.17-0.059
			c6.425,0,11.652,5.228,11.652,11.652c0,6.212-4.891,11.29-11.021,11.62l6.674,6.157c6.988-2.882,11.924-9.762,11.924-17.777
			c0-10.107-7.84-18.419-17.758-19.173c-0.539-0.041-1.035-0.316-1.354-0.754c-3.58-4.922-9.383-7.963-15.559-7.963
			c-0.427,0-0.854,0.015-1.281,0.043c-0.445,0.029-0.887-0.104-1.241-0.375C52.378,1.552,47.821,0,43.049,0
			c-8.535,0-16.104,4.983-19.582,12.512c-0.267,0.576-0.81,0.975-1.438,1.057C12.602,14.797,5.297,22.88,5.297,32.636
			C5.297,40.652,10.232,47.532,17.221,50.414z"/>
	</g>
</g>
<g>
</g>
<g>
</g>
<g>
</g>
<g>
</g>
<g>
</g>
<g>
</g>
<g>
</g>
<g>
</g>
<g>
</g>
<g>
</g>
<g>
</g>
<g>
</g>
<g>
</g>
<g>
</g>
<g>
</g>
</svg>
